<?xml version="1.0" encoding="UTF-8"?><svg id="Layer_1" xmlns="http://www.w3.org/2000/svg" viewBox="0 0 393.14 393.14"><defs><style>.cls-1{fill:none;stroke:#231f20;stroke-miterlimit:10;}.cls-2{fill:#0c1637;}.cls-2,.cls-3{stroke-width:0px;}.cls-3{fill:#fff;}</style></defs><path class="cls-1" d="m324.56,90.82v209.45c0,12.85-10.42,23.27-23.26,23.27H91.84c-12.85,0-23.27-10.42-23.27-23.27V90.82c0-1.49.14-2.94.41-4.35,2.04-10.77,11.5-18.92,22.86-18.92h209.46c12.84,0,23.26,10.42,23.26,23.27Z"/><path class="cls-2" d="m102.34,308.31l.03.03-8.73,8.73-8.26-8.26-.03-.02c-.16-.13-.32-.28-.47-.42-2.41-2.41-2.41-6.32,0-8.73,2.41-2.41,6.31-2.41,8.72,0h0s.02.02.03.03c0,0,.02-.02.03-.03h0c2.4-2.41,6.28-2.41,8.68,0,2.39,2.39,2.39,6.28,0,8.67h0Z"/><ellipse class="cls-2" cx="124.52" cy="307.45" rx="10.78" ry="6.93"/><path class="cls-2" d="m126.54,312.07s0,0,0,0c.06.07,1.8,2.02,4.58,2.22,1.13.08,2.27.1,3.22.09.65,0,.87-.87.3-1.18-1.14-.63-2.41-1.44-2.98-2.14-1-1.23-2.35-3.38-2.69-3.92-.04-.07-.13-.09-.2-.05l-3.97,2.27c-.08.05-.1.15-.05.22l1.78,2.48Z"/><path class="cls-1" d="m98.1,176.17c-8.06,8.05-18.46,12.54-29.53,13.58v-43.11l29.53,29.53Z"/><path class="cls-2" d="m274.85,225.5c-29.13,15.32-63.59,7.11-76.98-18.35l105.49-55.48c13.39,25.45.62,58.5-28.51,73.83Z"/><circle class="cls-3" cx="282.48" cy="192.07" r="8.04"/><path class="cls-1" d="m112.59,241.4c-1.13-2.39-12.61-27.59,0-46.96,16.53-25.39,62.58-22.55,71.15-8.18,3.74,6.28,1.65,16.98-2.49,18.5-4.41,1.62-13.52-6.32-13.87-14.23-.57-12.59,21.17-21.43,22.77-22.06,18.66-7.36,29.46.73,43.05-2.13,13.39-2.82,29.46-16.26,42.69-61.19"/><rect class="cls-2" x="250.24" y="95.64" width="56.21" height="9.45" transform="translate(67.26 -106.98) rotate(24.66)"/><rect class="cls-2" x="87.43" y="240.3" width="56.21" height="9.45" transform="translate(-66.79 44.66) rotate(-17.06)"/><rect class="cls-2" x="190.99" y="203.29" width="5.64" height="74.67" transform="translate(-112.28 282.71) rotate(-58.98)"/><line class="cls-1" x1="161.81" y1="221.38" x2="139.64" y2="208.05"/><path class="cls-1" d="m218.84,323.54h24.51c.22-1.06.47-2.11.74-3.15.17-.71.36-1.42.56-2.12.01-.06.02-.12.05-.18.19-.73.41-1.46.63-2.18.11-.38.23-.75.35-1.13.34-1.09.7-2.16,1.09-3.23.12-.34.24-.68.37-1.02.17-.47.35-.93.53-1.39.13-.35.27-.71.42-1.06.23-.59.47-1.17.72-1.75.22-.51.44-1.02.66-1.52.77-1.73,1.59-3.44,2.47-5.11.25-.49.51-.98.78-1.47.03-.06.06-.13.1-.2.31-.56.62-1.12.94-1.67.42-.75.87-1.5,1.32-2.24.33-.56.68-1.12,1.04-1.66.15-.26.32-.52.5-.78.26-.41.53-.82.81-1.23.8-1.21,1.64-2.39,2.51-3.56.24-.33.49-.66.74-.99,0-.03.04-.06.07-.09.29-.39.59-.78.9-1.17.25-.33.51-.66.79-.98.33-.41.65-.82.99-1.22.33-.4.67-.8,1.02-1.2.2-.23.4-.46.6-.68.19-.23.39-.46.6-.68.38-.43.76-.85,1.15-1.26.11-.14.24-.27.38-.41.31-.34.63-.66.94-.99.42-.43.84-.86,1.27-1.29.43-.44.86-.86,1.3-1.27.44-.42.88-.83,1.32-1.24.42-.39.84-.77,1.26-1.14.06-.07.12-.13.19-.17.63-.56,1.26-1.11,1.9-1.65.05-.05.09-.09.14-.12.66-.55,1.34-1.1,2.02-1.64.31-.25.63-.5.94-.74.21-.17.42-.33.63-.48.44-.34.87-.67,1.32-.99.39-.3.78-.58,1.17-.85.55-.4,1.1-.78,1.66-1.15,1.36-.94,2.75-1.83,4.17-2.68.62-.38,1.24-.75,1.87-1.11,1.26-.73,2.54-1.43,3.84-2.1.32-.16.63-.32.95-.48.61-.31,1.23-.61,1.85-.91,1.7-.81,3.43-1.58,5.19-2.28.52-.21,1.04-.42,1.57-.62.14-.06.29-.12.44-.17.48-.18.96-.36,1.43-.53.58-.21,1.16-.42,1.75-.61.59-.2,1.18-.39,1.77-.58.5-.16,1-.31,1.5-.46.29-.1.57-.18.86-.26.32-.09.64-.18.97-.27.01-.01.03-.01.04-.01.17-.05.34-.1.51-.14,0-.01.02-.01.04-.01.48-.13.97-.26,1.45-.38,1.21-.32,2.43-.6,3.66-.85.52-.11,1.04-.22,1.56-.32.19-.05.39-.08.58-.11.52-.1,1.04-.19,1.57-.28,1.24-.23,2.49-.41,3.75-.57v-24.24c-53.63,5.57-96.77,46.47-105.72,99.02Z"/><path class="cls-2" d="m320.81,249.33c1.24-.23,2.49-.41,3.75-.57v51.51c0,12.85-10.42,23.27-23.26,23.27h-57.95c.22-1.06.47-2.11.74-3.15.17-.71.36-1.42.56-2.12.01-.06.02-.12.05-.18.19-.73.41-1.46.63-2.18.11-.38.23-.75.35-1.13.34-1.09.7-2.16,1.09-3.23.12-.34.24-.68.37-1.02.17-.47.35-.93.53-1.39.13-.35.27-.71.42-1.06.23-.59.47-1.17.72-1.75.22-.51.44-1.02.66-1.52.77-1.73,1.59-3.44,2.47-5.11.25-.49.51-.98.78-1.47.03-.06.06-.13.1-.2.31-.56.62-1.12.94-1.67.42-.75.87-1.5,1.32-2.24.33-.56.68-1.11,1.04-1.66.15-.26.32-.52.5-.78.26-.41.53-.82.81-1.23.8-1.21,1.64-2.39,2.51-3.56.24-.33.49-.66.74-.99,0-.03.04-.06.07-.09.29-.39.59-.79.9-1.17.25-.33.51-.66.79-.98.33-.41.65-.82.99-1.22.33-.4.67-.8,1.02-1.2.2-.23.4-.46.6-.68.19-.23.39-.46.6-.68.38-.43.76-.85,1.15-1.26.11-.14.24-.27.38-.41.31-.34.63-.66.94-.99.42-.43.84-.86,1.27-1.29.43-.44.86-.86,1.3-1.27.44-.42.88-.83,1.32-1.24.42-.39.84-.77,1.26-1.14.06-.07.12-.13.19-.17.63-.56,1.26-1.11,1.9-1.65.05-.05.09-.09.14-.12.66-.55,1.34-1.1,2.02-1.64.31-.25.63-.5.94-.74.21-.17.42-.33.63-.48.44-.34.87-.67,1.32-.99.39-.3.78-.58,1.17-.85.55-.39,1.1-.78,1.66-1.15,1.36-.94,2.75-1.83,4.17-2.68.62-.38,1.24-.75,1.87-1.11,1.26-.73,2.54-1.43,3.84-2.1.32-.16.63-.32.95-.48.61-.31,1.23-.61,1.85-.91,1.7-.81,3.43-1.58,5.19-2.28.52-.21,1.04-.42,1.57-.62.14-.06.29-.12.44-.17.48-.18.96-.36,1.43-.53.58-.21,1.16-.42,1.75-.61.59-.2,1.18-.39,1.77-.58.5-.16,1-.31,1.5-.46.29-.1.57-.18.86-.26.32-.09.64-.18.97-.27.01-.01.03-.01.04-.01.17-.05.34-.1.51-.14,0-.01.02-.01.04-.01.48-.13.97-.26,1.45-.38,1.21-.32,2.43-.6,3.66-.85.52-.11,1.04-.22,1.56-.32.19-.05.39-.08.58-.11.52-.1,1.04-.19,1.57-.28Z"/><path class="cls-2" d="m222.88,67.55c-16.38,29.42-47.79,49.32-83.85,49.32-27.64,0-52.55-11.69-70.05-30.4-.27,1.41-.41,2.86-.41,4.35v27.24c19.79,14.4,44.13,22.88,70.46,22.88,49.74,0,92.41-30.27,110.6-73.39h-26.75Z"/></svg>