<?xml version="1.0" encoding="UTF-8"?><svg id="Layer_1" xmlns="http://www.w3.org/2000/svg" viewBox="0 0 393.14 393.14"><defs><style>.cls-1{fill:#fff;}.cls-1,.cls-2{stroke:#231f20;stroke-miterlimit:10;}.cls-2{fill:none;}.cls-3{fill:#0c1637;stroke-width:0px;}</style></defs><ellipse class="cls-3" cx="147.6" cy="276.56" rx="103.46" ry="21.27"/><ellipse class="cls-3" cx="186.64" cy="304.23" rx="64.42" ry="21.25"/><ellipse class="cls-3" cx="264.86" cy="282.99" rx="68.13" ry="19.45"/><ellipse class="cls-3" cx="291.42" cy="323.8" rx="23.24" ry="7.76"/><path class="cls-1" d="m279.49,169.48v99.89c0,9.54-25.86,17.27-57.77,17.27s-57.76-7.73-57.76-17.27v-99.89c0-3.72,25.86-6.73,57.76-6.73s57.77,3.01,57.77,6.73Z"/><path class="cls-1" d="m320.12,219.58c0,18.91-18.19,34.26-40.64,34.26v-10.2c15.76,0,28.54-10.77,28.54-24.05s-12.78-24.06-28.54-24.06v-10.2c22.44,0,40.64,15.34,40.64,34.27Z"/><path class="cls-2" d="m211.73,128.56c-7.83-7.07-16.08-16.83-14.36-26.59,2.11-11.92,17.71-16.08,16.48-24.46-1.18-8.05-16.02-7.17-20.74-18.61-3.02-7.31-1.25-18.09,5.85-22.87,7.6-5.11,20.1-2.53,22.33,3.19,1.28,3.28-.51,8.37-4.25,10.1-3.86,1.78-9.44-.17-12.23-5.32"/><path class="cls-2" d="m246.8,131.3c-4.18-5.12-8.61-11.78-6.89-15.95,1.79-4.33,8.64-2.17,11.02-6.91,2.92-5.82-2.42-18.97-9.64-20.21-3.46-.59-8,1.43-8.26,4.25-.23,2.42,2.67,5.55,7.35,6.91"/><path class="cls-3" d="m279.48,169.99c0,6.11-25.86,11.06-57.77,11.06s-57.76-4.96-57.76-11.06,25.86-11.08,57.76-11.08,57.77,4.96,57.77,11.08Z"/></svg>