<?xml version="1.0" encoding="UTF-8"?><svg id="Layer_1" xmlns="http://www.w3.org/2000/svg" viewBox="0 0 393.14 393.14"><defs><style>.cls-1{stroke-linecap:round;stroke-linejoin:round;}.cls-1,.cls-2,.cls-3{stroke:#231f20;}.cls-1,.cls-4{fill:#0c1637;}.cls-2{fill:#fff;}.cls-2,.cls-3{stroke-miterlimit:10;}.cls-3{fill:none;}.cls-4{stroke-width:0px;}</style></defs><path class="cls-2" d="m156.03,248.8c-14.6-2.01-24.11-5.28-24.11-8.99v-.51c0-.27.14-.54.4-.8.58-.57,1.78-1.12,3.51-1.64,5.02,3.99,11.95,8.1,20.2,11.94Z"/><path class="cls-2" d="m247.45,239.3v.51c0,1.75-2.14,3.42-5.95,4.89l2.48-7.71c1.5.48,2.54.99,3.07,1.51.26.26.4.53.4.8Z"/><path class="cls-2" d="m288.09,289.4c0,18.91-18.2,34.25-40.64,34.25v-10.2c15.76,0,28.54-10.77,28.54-24.05s-12.78-24.07-28.54-24.07v-10.2c22.44,0,40.64,15.34,40.64,34.27Z"/><path class="cls-4" d="m156.03,248.8c-14.6-2.01-24.11-5.28-24.11-8.99,0-.44.14-.88.4-1.31.49-.79,1.41-1.56,2.71-2.29.26.22.52.44.8.65,5.02,3.99,11.95,8.1,20.2,11.94Z"/><path class="cls-4" d="m247.45,239.81c0,1.75-2.14,3.42-5.95,4.89l2.48-7.71.26-.82c1.36.74,2.31,1.52,2.81,2.33.26.43.4.87.4,1.31Z"/><path class="cls-3" d="m247.45,239.81v99.38c0,9.53-25.86,17.27-57.77,17.27s-57.76-7.74-57.76-17.27v-99.38c0,3.71,9.51,6.98,24.11,8.99,9.48,1.3,21.1,2.07,33.65,2.07,22.73,0,42.4-2.51,51.82-6.17,3.81-1.47,5.95-3.14,5.95-4.89Z"/><polygon class="cls-2" points="135.06 198.31 131.95 208.02 131.94 208.02 135.06 198.31"/><path class="cls-2" d="m164.97,137.01c-5.32-3.54-8.09-6.65-7.39-8.82.14-.43.4-.81.8-1.14h.01c.46-.23,1.15-.37,2.04-.43l4.54,10.39Z"/><path class="cls-2" d="m267.73,163.02l-.13.39s-.01.07-.02.1c0,.03-.02.05-.03.08-1.05,2.88-8.21,3.49-18.92,2.13,5.03-2.42,9.74-4.97,14.03-7.56,2.69,1.6,4.4,2.95,4.93,3.97h.01c.17.34.21.63.13.89Z"/><path class="cls-4" d="m152.89,142.78l-3.12,9.71c-15-4.82-30.46,1.53-34.52,14.19-4.06,12.64,4.81,26.81,19.81,31.63l-3.11,9.71h-.01c-21.36-6.87-33.99-27.03-28.21-45.04,5.78-18.02,27.8-27.06,49.16-20.2Z"/><path class="cls-4" d="m164.97,137.01c-5.32-3.54-8.09-6.65-7.39-8.82.14-.43.4-.81.8-1.14h.01c.44-.39,1.05-.71,1.81-.96l.23.53,4.54,10.39Z"/><path class="cls-4" d="m267.6,163.41s-.01.07-.02.1c0,.03-.02.05-.03.08-1.05,2.88-8.21,3.49-18.92,2.13,5.03-2.42,9.74-4.97,14.03-7.56.41-.25.82-.5,1.23-.75,2.09,1.77,3.37,3.37,3.7,4.72h.01c.11.46.12.89,0,1.28Z"/><path class="cls-1" d="m267.55,163.59l-23.31,72.58-.26.82-2.48,7.71c-9.42,3.66-29.09,6.17-51.82,6.17-12.55,0-24.17-.77-33.65-2.07-8.25-3.84-15.18-7.95-20.2-11.94-.28-.21-.54-.43-.8-.65-6.03-4.96-9.03-9.7-7.84-13.4l4.75-14.79h.01l3.11-9.71,14.71-45.82,3.12-9.71,4.84-15.08c.09-.26.3-.48.65-.65-.4.33-.66.71-.8,1.14-.7,2.17,2.07,5.28,7.39,8.82,8.96,6,25.17,13.25,44.23,19.37,14.97,4.81,28.91,8.02,39.43,9.34,10.71,1.36,17.87.75,18.92-2.13Z"/><path class="cls-2" d="m199.64,72.06c-29.24,12.76-54.92,18.56-57.36,12.96l-.21-.47c-.11-.26-.09-.57.06-.93,1.88-4.45,23.15-16.54,50.19-28.34,27.09-11.82,50.45-19.2,54.93-17.51h.01c.35.13.59.33.7.58l.2.47c2.45,5.6-19.27,20.48-48.52,33.24Z"/><path class="cls-2" d="m281.7,115.66l-4.08-9.35c14.44-6.3,21.84-21.29,16.53-33.46-5.31-12.18-21.34-16.94-35.78-10.64l-4.08-9.35c20.57-8.98,43.38-2.19,50.95,15.15,7.56,17.34-2.97,38.68-23.54,47.65Z"/><path class="cls-4" d="m199.64,72.06c-29.24,12.76-54.92,18.56-57.36,12.96-.18-.42-.23-.89-.15-1.4.97-6.41,21.59-20.04,48.65-31.85,27.1-11.82,51.14-17.67,56.47-14h.01c.42.29.72.64.9,1.05,2.45,5.6-19.27,20.48-48.52,33.24Z"/><path class="cls-3" d="m263.89,157.41c-.41.25-.82.5-1.23.75-4.29,2.59-9,5.14-14.03,7.56-10.52-1.32-24.46-4.53-39.43-9.34-19.06-6.12-35.27-13.37-44.23-19.37l-4.54-10.39-.23-.53-17.92-41.07c2.44,5.6,28.12-.2,57.36-12.96,29.25-12.76,50.97-27.64,48.52-33.24l6.13,14.04,4.08,9.35,19.25,44.1,4.08,9.35,6.21,14.24c2.76,6.31-7.23,17.16-24.02,27.51Z"/></svg>