<?xml version="1.0" encoding="UTF-8"?><svg id="Layer_1" xmlns="http://www.w3.org/2000/svg" viewBox="0 0 393.14 393.14"><defs><style>.cls-1{fill:#fff;stroke:#231f20;}.cls-1,.cls-2{stroke-miterlimit:10;}.cls-2{stroke:#f1f2f2;}.cls-2,.cls-3{fill:#0c1637;}.cls-3{stroke-width:0px;}</style></defs><ellipse class="cls-3" cx="154.69" cy="260.47" rx="63.02" ry="19.98"/><ellipse class="cls-3" cx="274.81" cy="280.43" rx="37.87" ry="11.18"/><ellipse class="cls-3" cx="270" cy="256.48" rx="87" ry="19.52"/><ellipse class="cls-3" cx="334.48" cy="291.6" rx="14.8" ry="4.73"/><ellipse class="cls-3" cx="203.01" cy="247.79" rx="57.33" ry="23.06"/><path class="cls-1" d="m67.77,142.3c5.96-4.81,12.87-7.56,20.23-7.56"/><path class="cls-1" d="m154.57,249.69h-66.57c-7.36,0-14.27-2.75-20.23-7.56-12.26-9.91-20.53-28.55-20.53-49.92s8.27-40,20.53-49.91c5.96-4.81,12.87-7.56,20.23-7.56h66.57c-13.74,0-25.89,9.58-33.28,24.27-4.71,9.38-7.49,20.83-7.49,33.2s2.78,23.83,7.49,33.21c7.39,14.69,19.54,24.27,33.28,24.27Z"/><path class="cls-1" d="m117.6,94.11c18.91,0,34.26,18.19,34.26,40.64h-10.2c0-15.76-10.77-28.54-24.05-28.54-13.29,0-24.06,12.78-24.06,28.54h-10.2c0-22.44,15.34-40.64,34.27-40.64Z"/><path class="cls-2" d="m195.34,192.21c0,31.75-18.25,57.48-40.77,57.48-13.74,0-25.89-9.58-33.28-24.27-4.71-9.38-7.49-20.83-7.49-33.21s2.78-23.82,7.49-33.2c7.39-14.69,19.54-24.27,33.28-24.27,22.52,0,40.77,25.73,40.77,57.47Z"/><path class="cls-3" d="m254.97,239.1c0,9.6-26.7,17.38-59.63,17.38s-59.63-7.78-59.63-17.38"/></svg>