<?xml version="1.0" encoding="UTF-8"?><svg id="Layer_1" xmlns="http://www.w3.org/2000/svg" viewBox="0 0 393.14 393.14"><defs><style>.cls-1{fill:#fff;}.cls-1,.cls-2{stroke:#231f20;stroke-miterlimit:10;}.cls-2{fill:none;}.cls-3{fill:#0c1637;stroke-width:0px;}</style></defs><line class="cls-1" x1="77.24" y1="215.76" x2="315.9" y2="215.76"/><path class="cls-1" d="m258.07,137.69v96.49c-.05,1.67-.51,3.29-1.36,4.86-5.72,10.66-28.8,18.64-56.4,18.64s-50.68-7.98-56.4-18.64c-.9-1.67-1.37-3.4-1.37-5.17v-12.12h.01v-10.21h-.01v-48.11h.01v-10.21h-.01v-15.53c0-9.54,25.86-17.27,57.77-17.27s57.76,7.73,57.76,17.27Z"/><rect class="cls-1" x="142.54" y="153.22" width=".01" height="10.21"/><rect class="cls-1" x="142.54" y="211.54" width=".01" height="10.21"/><path class="cls-1" d="m143.91,239.04c-.9-1.67-1.37-3.4-1.37-5.17"/><path class="cls-1" d="m258.07,234.18c-.05,1.67-.51,3.29-1.36,4.86"/><path class="cls-1" d="m114.01,187.48c0,13.29,12.77,24.06,28.53,24.06h.01v10.21h-.01c-22.44,0-40.63-15.35-40.63-34.27s18.19-34.26,40.63-34.26h.01v10.21h-.01c-15.76,0-28.53,10.77-28.53,24.05Z"/><ellipse class="cls-3" cx="200.31" cy="138.89" rx="57.77" ry="18.47"/><polyline class="cls-2" points="239.39 251.06 232.41 232.83 222.32 232.83 220 221.51 207.54 221.51 200.61 204.59"/><polyline class="cls-2" points="221.07 226.93 235.8 224.4 232.7 211.5 240.85 204.59"/><rect class="cls-2" x="68.58" y="67.55" width="255.99" height="255.99" rx="23.26" ry="23.26"/><path class="cls-3" d="m102.34,308.31l.03.03-8.73,8.73-8.26-8.26-.03-.02c-.16-.13-.32-.28-.47-.42-2.41-2.41-2.41-6.32,0-8.73,2.41-2.41,6.31-2.41,8.72,0h0s.02.02.03.03c0,0,.02-.02.03-.03h0c2.4-2.41,6.28-2.41,8.68,0,2.39,2.39,2.39,6.28,0,8.67h0Z"/><ellipse class="cls-3" cx="124.52" cy="307.45" rx="10.78" ry="6.93"/><path class="cls-3" d="m126.54,312.07s0,0,0,0c.06.07,1.8,2.02,4.58,2.22,1.13.08,2.27.1,3.22.09.65,0,.87-.87.3-1.18-1.14-.63-2.41-1.44-2.98-2.14-1-1.23-2.35-3.38-2.69-3.92-.04-.07-.13-.09-.2-.05l-3.97,2.27c-.08.05-.1.15-.05.22l1.78,2.48Z"/></svg>