<?xml version="1.0" encoding="UTF-8"?><svg id="Layer_1" xmlns="http://www.w3.org/2000/svg" viewBox="0 0 393.14 393.14"><defs><style>.cls-1{fill:none;}.cls-1,.cls-2{stroke-width:0px;}.cls-3{fill:#fff;stroke:#231f20;stroke-miterlimit:10;}.cls-2{fill:#0c1637;}</style></defs><path class="cls-3" d="m322.81,183.49c0,1.72-.65,3.45-1.97,4.76l-26.88,26.89c-2.85-3.49-6.11-6.62-9.72-9.32l27.08-27.09c2.63-2.63,6.9-2.63,9.52,0,1.32,1.31,1.97,3.04,1.97,4.76Z"/><path class="cls-2" d="m233.14,119.26c-22.01-22.05-46.47-33.24-54.61-25.03-2.3,2.32-3.05,5.92-2.47,10.41,1.5,11.43,11.76,28.56,27.57,44.39,18.39,18.42,38.5,29.27,49.36,27.54,2.14-.33,3.91-1.16,5.25-2.51,8.15-8.23-3.09-32.76-25.1-54.8Zm-24.09,24.31c-11.8-11.81-20.35-23.99-23.36-32.43-1.57-4.42-1.64-7.82.14-9.61,5.15-5.2,23.92,5.17,41.91,23.19,17.98,18,28.39,36.82,23.22,42.03-1.12,1.13-2.87,1.52-5.12,1.27-8.13-.92-22.69-10.35-36.78-24.45Z"/><path class="cls-2" d="m98.58,177.24c.45,1.04,1,2,1.67,2.88l-1.67-2.88Z"/><line class="cls-1" x1="178.81" y1="101.66" x2="175.87" y2="99.95"/><path class="cls-2" d="m160.9,84.98c-13.39-6.48-36.89,2-56.09,21.2s-27.68,42.7-21.2,56.1c.54,1.14,1.2,2.2,1.97,3.19l2.93,2.93,122.57,122.57,78.52-78.52-122.62-122.62-2.82-2.82-3.25-2.02Z"/><path class="cls-2" d="m101.45,181.52c-.44-.44-.84-.9-1.2-1.39l2.59,2.59c-.49-.36-.95-.76-1.39-1.2Z"/><path class="cls-2" d="m180.14,102.82c.42.42.81.86,1.16,1.33l-2.49-2.49c.47.35.91.74,1.33,1.16Z"/><path class="cls-3" d="m306.53,250.37c0,30.73-24.91,55.64-55.64,55.64-15.37,0-29.28-6.23-39.35-16.3s-16.3-23.97-16.3-39.34c0-30.74,24.92-55.65,55.65-55.65,12.52,0,24.06,4.13,33.35,11.1,1.8,1.35,3.52,2.81,5.14,4.36.42.41.84.81,1.24,1.23,1.17,1.19,2.28,2.44,3.34,3.73,7.86,9.59,12.57,21.86,12.57,35.23Z"/><circle class="cls-3" cx="250.89" cy="250.36" r="49.39"/></svg>