<?xml version="1.0" encoding="UTF-8"?><svg id="Layer_1" xmlns="http://www.w3.org/2000/svg" viewBox="0 0 393.14 393.14"><defs><style>.cls-1{fill:none;stroke:#231f20;stroke-miterlimit:10;}.cls-2{fill:#0c1637;stroke-width:0px;}</style></defs><path class="cls-1" d="m129.27,130.08c29.13-15.32,63.59-7.11,76.98,18.35l-105.49,55.48c-13.39-25.45-.62-58.5,28.51-73.83Z"/><circle class="cls-1" cx="121.64" cy="163.5" r="8.04"/><path class="cls-1" d="m291.53,114.18c1.13,2.39,12.61,27.59,0,46.96-16.53,25.39-62.58,22.55-71.15,8.18-3.74-6.28-1.65-16.98,2.49-18.5,4.41-1.62,13.52,6.32,13.87,14.23.57,12.59-21.17,21.43-22.77,22.06-18.66,7.36-29.46-.73-43.05,2.13-13.39,2.82-29.46,16.26-42.69,61.19"/><rect class="cls-2" x="97.67" y="250.49" width="56.21" height="9.45" transform="translate(133.59 539.62) rotate(-155.34)"/><rect class="cls-2" x="260.49" y="105.83" width="56.21" height="9.45" transform="translate(596.92 131.59) rotate(162.94)"/><rect class="cls-2" x="207.5" y="77.61" width="5.64" height="74.67" transform="translate(417.21 -6.05) rotate(121.02)"/><line class="cls-1" x1="242.31" y1="134.19" x2="264.48" y2="147.52"/><circle class="cls-1" cx="224.89" cy="264.17" r="39.16"/><circle class="cls-2" cx="224.89" cy="264.17" r="30.79"/></svg>