<?xml version="1.0" encoding="UTF-8"?><svg id="Layer_1" xmlns="http://www.w3.org/2000/svg" viewBox="0 0 393.14 393.14"><defs><style>.cls-1{stroke:#f1f2f2;stroke-width:.5px;}.cls-1,.cls-2,.cls-3{stroke-miterlimit:10;}.cls-1,.cls-4{fill:#0c1637;}.cls-2,.cls-3{stroke:#231f20;}.cls-2,.cls-5{fill:#fff;}.cls-3{fill:none;}.cls-4,.cls-6,.cls-5{stroke-width:0px;}.cls-6{fill:#231f20;}</style></defs><path class="cls-2" d="m324.56,217.4v31.79c-28.52,5.54-71.61,9.19-120.25,9.54-2.56.02-5.14.03-7.74.03-4.43,0-8.83-.03-13.17-.08-46.41-.57-87.38-4.15-114.83-9.49v-31.78c13.74-2.68,30.87-4.91,50.37-6.55.33-.02.67-.05,1-.08,2.75-.22,5.55-.44,8.39-.64,2.23-.16,4.49-.31,6.78-.45,4.86-.31,9.85-.58,14.93-.82,14.61-.67,30.08-1.03,46.09-1.04h.44c15.54,0,30.58.34,44.83.97,5.37.23,10.63.51,15.76.83,2.23.14,4.43.28,6.61.44,2.91.2,5.78.42,8.6.65.32.02.63.05.95.07,19.86,1.64,37.29,3.9,51.24,6.61Z"/><path class="cls-3" d="m244.77,184.95s-.04.03-.05.04c-.01-.01-.03-.03-.04-.04l.04-.05.05.05Z"/><path class="cls-4" d="m100.26,305l.03.03-8.73,8.73-8.26-8.26-.03-.02c-.16-.13-.32-.28-.47-.42-2.41-2.41-2.41-6.32,0-8.73,2.41-2.41,6.31-2.41,8.72,0h0s.02.02.03.03c0,0,.02-.02.03-.03h0c2.4-2.41,6.28-2.41,8.68,0,2.39,2.39,2.39,6.28,0,8.67h0Z"/><ellipse class="cls-4" cx="122.44" cy="304.14" rx="10.78" ry="6.93"/><path class="cls-4" d="m124.46,308.75s0,0,0,0c.06.07,1.8,2.02,4.58,2.22,1.13.08,2.27.1,3.22.09.65,0,.87-.87.3-1.18-1.14-.63-2.41-1.44-2.98-2.14-1-1.23-2.35-3.38-2.69-3.92-.04-.07-.13-.09-.2-.05l-3.97,2.27c-.08.05-.1.15-.05.22l1.78,2.48Z"/><path class="cls-4" d="m204.31,232.85v25.88c-2.56.02-5.14.03-7.74.03-4.43,0-8.83-.03-13.17-.08v-25.83h20.91Z"/><path class="cls-2" d="m269.73,213.37c-9.88,7.41-39.09,12.78-73.6,12.78s-63.72-5.37-73.6-12.78c9.88-7.43,39.1-12.8,73.6-12.8s63.72,5.37,73.6,12.8Z"/><path class="cls-4" d="m273.32,207.83c0,1.93-1.26,3.79-3.59,5.54-9.88,7.41-39.09,12.78-73.6,12.78s-63.72-5.37-73.6-12.78c-2.33-1.75-3.59-3.61-3.59-5.54,0-10.13,34.56-18.33,77.19-18.33s77.19,8.2,77.19,18.33Z"/><path class="cls-1" d="m257.63,207.83c0,1.54-1,3.02-2.86,4.41-7.87,5.9-31.15,10.18-58.64,10.18s-50.77-4.28-58.64-10.18c-1.86-1.39-2.86-2.88-2.86-4.41,0-8.07,27.54-14.61,61.5-14.61s61.5,6.53,61.5,14.61Z"/><path class="cls-1" d="m242.32,206.62c0,1.17-.76,2.29-2.17,3.35-5.97,4.48-23.61,7.72-44.46,7.72s-38.49-3.24-44.46-7.72c-1.41-1.06-2.17-2.18-2.17-3.35,0-6.12,20.88-11.07,46.63-11.07s46.63,4.95,46.63,11.07Z"/><path class="cls-5" d="m196.13,236.72c-41.57,0-76.69-8.16-76.69-17.82v-7.96c.63.97,1.56,1.91,2.79,2.83,10.27,7.71,39.97,12.88,73.9,12.88s63.63-5.18,73.9-12.88c1.23-.92,2.16-1.87,2.79-2.83v7.96c0,9.66-35.12,17.82-76.69,17.82Z"/><path class="cls-6" d="m119.94,212.39c.55.61,1.21,1.2,1.99,1.78,10.35,7.76,40.17,12.98,74.2,12.98s63.85-5.22,74.2-12.98c.78-.58,1.44-1.18,1.99-1.78v6.51c0,8.36-30.62,17.32-76.19,17.32s-76.19-8.96-76.19-17.32v-6.51m153.38-4.56c0,1.93-1.26,3.79-3.59,5.54-9.88,7.41-39.09,12.78-73.6,12.78s-63.72-5.37-73.6-12.78c-2.33-1.75-3.59-3.61-3.59-5.54v11.07c0,10.12,34.56,18.32,77.19,18.32s77.19-8.2,77.19-18.32v-11.07h0Z"/><path class="cls-2" d="m220.73,151.1v50.89c0,3.22-11.01,5.84-24.6,5.84s-24.59-2.62-24.59-5.84v-50.89c0,1.94,11.01,3.51,24.59,3.51s24.6-1.57,24.6-3.51Z"/><path class="cls-4" d="m220.73,151.1c0,1.94-11.01,3.51-24.6,3.51s-24.59-1.57-24.59-3.51,11.01-3.51,24.59-3.51,24.6,1.57,24.6,3.51Z"/><path class="cls-2" d="m185.68,168.65c-8.36-.56-14.15-1.77-14.15-3.18"/><path class="cls-2" d="m220.73,173.19c0,1.76-9.06,3.21-20.88,3.47-1.21.03-2.46.04-3.72.04-4.48,0-8.68-.17-12.3-.47"/><path class="cls-2" d="m220.73,177.99c0,1.94-11.01,3.51-24.6,3.51"/><path class="cls-2" d="m196.13,189.81c-13.58,0-24.59-1.57-24.59-3.51"/><path class="cls-3" d="m324.56,91.25v209.46c0,12.84-10.42,23.26-23.26,23.26H91.84c-12.85,0-23.27-10.42-23.27-23.26V91.25c0-12.85,10.42-23.27,23.27-23.27h209.46c12.84,0,23.26,10.42,23.26,23.27Z"/></svg>